<svg width="77" height="62" viewBox="0 0 77 62" fill="none" xmlns="http://www.w3.org/2000/svg">
<path d="M76.8642 36.4187L64.4642 46.1615V46.1615C66.2657 40.1088 66.3498 33.6745 64.7069 27.5768L64.4642 26.6759L76.8642 36.4187Z" fill="currentColor"/>
<path d="M37.0671 0C42.4862 3.89711 56.3875 18.5735 58.1603 25.0087C59.933 31.4438 59.4498 38.2919 56.791 44.4143C54.1321 50.5367 49.4578 55.5647 43.5452 58.6622C37.6325 61.7597 30.8378 62.7402 24.2907 61.4406C17.7436 60.141 11.8385 56.6397 7.5572 51.5187C3.27593 46.3977 0.8764 39.9656 0.757565 33.2918C0.638731 26.618 2.80775 20.1046 6.90399 14.8344C11.0002 9.56425 16.7769 5.85489 23.2736 4.32304L29.9814 12.4C25.5529 12.4 17.5815 16.8285 15.4304 21.4616C12.8476 24.7846 11.4799 28.8915 11.5549 33.0995C11.6298 37.3076 13.1428 41.3632 15.8422 44.5922C18.5417 47.8211 22.2651 50.0288 26.3932 50.8483C30.5214 51.6677 34.8057 51.0495 38.5338 49.0964C42.2619 47.1433 45.2092 43.973 46.8857 40.1126C48.5622 36.2522 48.8669 31.9343 47.7491 27.8768C46.6313 23.8192 29.8555 2.45725 26.4386 0H37.0671Z" fill="currentColor"/>
</svg>
